<?xml version="1.0" encoding="utf-8"?>
<!-- Generator: Adobe Illustrator 27.2.0, SVG Export Plug-In . SVG Version: 6.00 Build 0)  -->
<svg version="1.1" id="Слой_1" xmlns="http://www.w3.org/2000/svg" xmlns:xlink="http://www.w3.org/1999/xlink" x="0px" y="0px"
	 viewBox="0 0 100 100" style="enable-background:new 0 0 100 100;" xml:space="preserve">
<style type="text/css">
	.st0{fill:#FFFFFF;}
	.st1{fill:#808080;}
</style>
<g>
	<path class="st0" d="M15,94.5c-5.24,0-9.5-4.26-9.5-9.5V15c0-5.24,4.26-9.5,9.5-9.5h70c5.24,0,9.5,4.26,9.5,9.5v70
		c0,5.24-4.26,9.5-9.5,9.5H15z"/>
	<path class="st1" d="M85,6c4.96,0,9,4.04,9,9v70c0,4.96-4.04,9-9,9H15c-4.96,0-9-4.04-9-9V15c0-4.96,4.04-9,9-9H85 M85,5H15
		C9.48,5,5,9.48,5,15v70c0,5.52,4.48,10,10,10h70c5.52,0,10-4.48,10-10V15C95,9.48,90.52,5,85,5L85,5z"/>
</g>
</svg>
