<?xml version="1.0" encoding="utf-8"?>
<!-- Generator: Adobe Illustrator 27.2.0, SVG Export Plug-In . SVG Version: 6.00 Build 0)  -->
<svg version="1.1" id="Слой_1" xmlns="http://www.w3.org/2000/svg" xmlns:xlink="http://www.w3.org/1999/xlink" x="0px" y="0px"
	 viewBox="0 0 1920 284" style="enable-background:new 0 0 1920 284;" xml:space="preserve">
<style type="text/css">
	.st0{fill:#FFFFFF;}
</style>
<rect x="-193" y="-190" width="2233" height="582"/>
<g>
	<g>
		<path class="st0" d="M160.66,67.33H93.24V43.62h162.79v23.71h-67.51v185.02h-27.87V67.33z"/>
		<path class="st0" d="M467.83,146.81c0,57.41-32.19,108.54-97.95,108.54c-61.44,0-95.73-47.49-95.73-107.36
			c0-59.72,35-107.36,98.14-107.36C431.07,40.62,467.83,84.75,467.83,146.81z M303.13,147.09c0,45.11,23.09,84.66,67.96,84.66
			c48.46,0,67.75-39.94,67.75-84.53c0-44.97-21.87-82.98-67.68-82.98C323.86,64.23,303.13,102.55,303.13,147.09z"/>
		<path class="st0" d="M511.09,43.62h79.25c40.63,0,68.41,22.68,68.41,60.73c0,40.67-29.29,62.23-70.09,62.23h-49.71v85.76h-27.87
			V43.62z M538.96,143.3h48.34c28.59,0,42.9-13.96,42.9-38.24c0-25.44-17.33-38.15-41.81-38.15h-49.43V143.3z"/>
		<path class="st0" d="M878.2,163.4c0-38.76,0.41-78.17,1.31-100.13h-1.11c-8.93,33.83-42.71,123.42-66.65,189.08h-24.82
			c-18.08-53.42-53.05-153.86-62.43-189.48h-0.92c1.61,24.11,2.31,70.46,2.31,106.25v83.24h-26.08V43.62h41.3
			c23.7,64.78,52.67,148.35,59.83,174.92h0.49c4.91-20.08,39.15-111.82,63.66-174.92h40.15v208.73H878.2V163.4z"/>
		<path class="st0" d="M1006.27,252.35v-76.56c0-2.01-0.49-4.11-1.41-5.54L931.34,43.62h31.65c18.98,33.89,49.21,87.71,58.74,106.07
			c9-18.04,40.16-72.32,59.9-106.07h29.58l-75.86,127.08c-0.71,1.31-1.22,2.4-1.22,5.35v76.3H1006.27z"/>
		<path class="st0" d="M1137.19,43.62h27.46v102.4c15.53-16.09,68.51-68.56,101.45-102.4h34.46l-89.74,88.02L1305,252.35h-33.59
			l-80.05-102.77l-26.71,24.17v78.6h-27.46V43.62z"/>
		<path class="st0" d="M1356.56,43.62v208.73h-27.67V43.62H1356.56z"/>
		<path class="st0" d="M1411.39,252.35V43.62h36.64c29.94,48.81,95.05,152.62,106.77,175.31h0.41c-2.01-26.79-1.82-59.71-1.82-93.81
			v-81.5h26.17v208.73h-34.42c-27.59-45.31-95.5-157-108.58-180.42h-0.41c1.5,23.78,1.52,59.16,1.52,96.83v83.58H1411.39z"/>
		<path class="st0" d="M1816.62,146.81c0,57.41-32.19,108.54-97.95,108.54c-61.44,0-95.73-47.49-95.73-107.36
			c0-59.72,35-107.36,98.14-107.36C1779.85,40.62,1816.62,84.75,1816.62,146.81z M1651.92,147.09c0,45.11,23.09,84.66,67.96,84.66
			c48.46,0,67.75-39.94,67.75-84.53c0-44.97-21.87-82.98-67.68-82.98C1672.65,64.23,1651.92,102.55,1651.92,147.09z"/>
	</g>
</g>
<polygon class="st0" points="1323.79,43.62 1323.79,54 1313.41,43.62 "/>
<polygon class="st0" points="1351.46,43.62 1351.46,54 1361.84,43.64 "/>
<polygon class="st0" points="256.03,67.33 246.04,67.33 256.05,77.34 "/>
<polygon class="st0" points="256.03,43.62 246.04,43.62 256.05,33.62 "/>
<polygon class="st0" points="93.24,43.62 103.24,43.62 93.22,33.61 "/>
<polygon class="st0" points="93.24,67.33 103.24,67.33 93.24,77.33 "/>
</svg>
