<?xml version="1.0" encoding="utf-8"?>
<!-- Generator: Adobe Illustrator 26.0.1, SVG Export Plug-In . SVG Version: 6.00 Build 0)  -->
<svg version="1.1" id="Слой_1" xmlns="http://www.w3.org/2000/svg" xmlns:xlink="http://www.w3.org/1999/xlink" x="0px" y="0px"
	 viewBox="0 0 400 400" style="enable-background:new 0 0 400 400;" xml:space="preserve">
<style type="text/css">
	.st0{fill:#FFFFFF;}
</style>
<path class="st0" d="M360,230H40c-11.05,0-20-8.95-20-20v-20c0-11.05,8.95-20,20-20h320c11.05,0,20,8.95,20,20v20
	C380,221.05,371.05,230,360,230z"/>
<path class="st0" d="M360,130H40c-11.05,0-20-8.95-20-20V90c0-11.05,8.95-20,20-20h320c11.05,0,20,8.95,20,20v20
	C380,121.05,371.05,130,360,130z"/>
<path class="st0" d="M360,330H40c-11.05,0-20-8.95-20-20v-20c0-11.05,8.95-20,20-20h320c11.05,0,20,8.95,20,20v20
	C380,321.05,371.05,330,360,330z"/>
</svg>
